#!OML:ASF H:\Male1\Project 1\Capture day 1\Session 1\Male1.ASF
:FULLY-SPECIFIED
:DEGREES
691
root 12.3818 14.8031 -1.82117 -529.497 -93.9237 528.422
lowerback 8.19092 1.14683 3.42459
upperback 6.88193 1.46014 0.0644006
thorax 2.64258 0.755099 -1.93913
lowerneck -8.22258 2.33076 8.1526
upperneck 4.20001 2.61842 -6.2988
head 2.77327 1.20274 -3.10125
rclavicle -4.52235e-015 4.57205e-015
rhumerus -40.4105 36.8105 -104.02
rradius 113.894
rwrist -11.1489
rhand -26.042 19.0441
rfingers 7.12502
rthumb 0.505164 -10.935
lclavicle -4.52235e-015 4.57205e-015
lhumerus -33.2443 -27.2767 95.6381
lradius 114.798
lwrist 13.1205
lhand -16.4356 -7.65206
lfingers 7.12502
lthumb 9.77993 22.1008
rfemur -14.5978 10.9386 25.9905
rtibia 42.4131
rfoot -42.8283 -28.4378
rtoes -3.03945
lfemur -16.1466 -11.6665 -20.035
ltibia 53.5776
lfoot -27.3862 7.70089
ltoes -21.3195
692
root 12.4409 14.7979 -1.80397 -526.56 -93.7563 525.508
lowerback 7.86851 1.14942 3.4426
upperback 6.92154 1.45125 0.126626
thorax 2.86024 0.75412 -1.87694
lowerneck -8.44742 2.36039 8.22493
upperneck 4.25562 2.64053 -6.39665
head 2.83047 1.20775 -3.14022
rclavicle -2.44505e-014 -5.56597e-015
rhumerus -40.2146 36.7594 -103.812
rradius 113.851
rwrist -11.215
rhand -25.9971 18.8655
rfingers 7.12502
rthumb 0.5485 -11.1135
lclavicle -2.44505e-014 -5.56597e-015
lhumerus -33.3061 -27.3205 95.6719
lradius 114.593
lwrist 13.2889
lhand -16.2067 -7.44456
lfingers 7.12502
lthumb 10.0008 22.2978
rfemur -15.0755 10.9802 25.9818
rtibia 42.6568
rfoot -42.3359 -28.6886
rtoes -3.59082
lfemur -14.9715 -12.0967 -20.2809
ltibia 51.8777
lfoot -27.4977 7.37978
ltoes -23.0662
693
root 12.4971 14.7999 -1.787 -525.902 -93.5113 524.848
lowerback 7.71289 1.17 3.24477
upperback 6.89567 1.4657 0.151059
thorax 2.91188 0.754509 -1.73865
lowerneck -8.55147 2.365 8.39657
upperneck 4.24477 2.63224 -6.60752
head 2.84885 1.19652 -3.23268
rclavicle -5.71506e-015 -7.95139e-016
rhumerus -40.115 36.8093 -103.597
rradius 113.818
rwrist -11.178
rhand -26.1598 18.7753
rfingers 7.12502
rthumb 0.391423 -11.2041
lclavicle -5.71506e-015 -7.95139e-016
lhumerus -33.5067 -27.3387 95.7752
lradius 114.263
lwrist 13.7366
lhand -16.3439 -7.41307
lfingers 7.12502
lthumb 9.86835 22.3357
rfemur -15.4701 10.8645 25.774
rtibia 42.8394
rfoot -41.8238 -28.6582
rtoes -3.91159
lfemur -13.9042 -12.5751 -20.7387
ltibia 50.0972
lfoot -27.9824 6.84676
ltoes -16.6605
694
root 12.5541 14.7993 -1.7744 -522.676 -93.1102 521.528
lowerback 7.70938 1.25906 2.9989
upperback 6.83775 1.57405 0.207914
thorax 2.84798 0.796924 -1.54815
lowerneck -8.39347 2.38788 8.57006
upperneck 4.14592 2.66469 -6.79612
head 2.80113 1.21052 -3.3183
rclavicle -9.54166e-015 -3.97569e-015
rhumerus -40.2077 36.8749 -103.554
rradius 113.801
rwrist -11.0722
rhand -26.4277 18.6585
rfingers 7.12502
rthumb 0.132666 -11.3212
lclavicle -9.54166e-015 -3.97569e-015
lhumerus -33.8659 -27.2765 95.9314
lradius 113.827
lwrist 14.0715
lhand -16.6105 -7.28245
lfingers 7.12502
lthumb 9.61113 22.4783
rfemur -15.7277 11.2592 25.7763
rtibia 42.9591
rfoot -41.5476 -28.6387
rtoes -3.6326
lfemur -12.9116 -12.8591 -21.0263
ltibia 48.379
lfoot -28.7563 9.88585
ltoes -18.4319
695
root 12.6158 14.7948 -1.7474 -521.328 -93.0098 520.164
lowerback 7.64735 1.21703 3.07034
upperback 6.75913 1.52753 0.119854
thorax 2.80241 0.779152 -1.67651
lowerneck -8.25383 2.39519 8.73328
upperneck 4.14192 2.66741 -6.78582
head 2.77943 1.21761 -3.34248
rclavicle -1.7344e-014 7.35503e-015
rhumerus -40.0312 36.6385 -103.418
rradius 113.993
rwrist -12.3937
rhand -25.5597 18.784
rfingers 7.12502
rthumb 0.97102 -11.1936
lclavicle -1.7344e-014 7.35503e-015
lhumerus -34.3105 -27.2325 95.9867
lradius 113.316
lwrist 14.2238
lhand -16.9756 -6.71059
lfingers 7.12502
lthumb 9.25893 23.0661
rfemur -16.0589 11.0745 25.616
rtibia 43.0713
rfoot -41.0271 -28.5239
rtoes -3.82589
lfemur -12.1721 -13.2302 -21.3612
ltibia 46.7912
lfoot -29.5956 12.9691
ltoes -19.3322
696
root 12.6753 14.7952 -1.73222 -515.745 -92.7989 514.511
lowerback 7.66494 1.19192 3.00896
upperback 6.71627 1.49316 0.14411
thorax 2.74294 0.758061 -1.61642
lowerneck -8.28586 2.45721 8.71613
upperneck 4.28959 2.74571 -6.63752
head 2.83256 1.26234 -3.28949
rclavicle -1.44367e-014 9.24349e-015
rhumerus -40.0229 36.7845 -103.519
rradius 113.93
rwrist -12.0931
rhand -26.125 18.4762
rfingers 7.12502
rthumb 0.425059 -11.5031
lclavicle -1.44367e-014 9.24349e-015
lhumerus -34.774 -26.9565 95.9928
lradius 112.787
lwrist 14.2687
lhand -17.3532 -5.85977
lfingers 7.12502
lthumb 8.89451 23.9328
rfemur -16.332 11.3726 25.7424
rtibia 43.1246
rfoot -40.6871 -28.6715
rtoes -3.9471
lfemur -11.5571 -13.1925 -21.4341
ltibia 45.4575
lfoot -30.7897 13.0296
ltoes -15.6919
697
root 12.7334 14.8013 -1.70956 -511.906 -92.5116 510.549
lowerback 7.73463 1.13316 2.73392
upperback 6.70126 1.40139 0.213752
thorax 2.67296 0.698288 -1.38783
lowerneck -8.4097 2.62803 8.6071
upperneck 4.4695 2.97583 -6.52972
head 2.92121 1.37786 -3.22483
rclavicle 5.69021e-015 -5.96354e-015
rhumerus -40.0435 37.0472 -103.478
rradius 113.825
rwrist -11.5124
rhand -26.6182 18.4589
rfingers 7.12502
rthumb -0.0513111 -11.5208
lclavicle 5.69021e-015 -5.96354e-015
lhumerus -35.2558 -26.4512 96.1115
lradius 112.217
lwrist 13.9971
lhand -17.778 -5.35258
lfingers 7.12502
lthumb 8.4846 24.457
rfemur -16.5549 11.5666 25.6285
rtibia 43.148
rfoot -40.2043 -28.7895
rtoes -4.37974
lfemur -10.9523 -13.4722 -21.8186
ltibia 44.3853
lfoot -31.6511 13.9352
ltoes -12.6155
698
root 12.7927 14.8093 -1.68163 -504.765 -92.3255 503.368
lowerback 7.60844 1.10873 2.64619
upperback 6.72271 1.35851 0.269467
thorax 2.75891 0.67295 -1.27636
lowerneck -8.37002 2.7008 8.65159
upperneck 4.4722 3.06708 -6.45933
head 2.92203 1.42744 -3.2056
rclavicle -1.2424e-015 -6.95746e-016
rhumerus -39.6405 36.8512 -103.025
rradius 114.094
rwrist -13.0897
rhand -25.0568 18.7344
rfingers 7.12502
rthumb 1.45669 -11.2404
lclavicle -1.2424e-015 -6.95746e-016
lhumerus -35.5929 -26.1358 96.1452
lradius 111.498
lwrist 13.4489
lhand -18.18 -5.30026
lfingers 7.12502
lthumb 8.09663 24.5246
rfemur -16.8152 11.8027 25.619
rtibia 43.1043
rfoot -39.7923 -28.8875
rtoes -4.60684
lfemur -10.5431 -14.2159 -22.0637
ltibia 43.5938
lfoot -32.3357 14.9218
ltoes -10.0313
699
root 12.8533 14.8201 -1.64894 -499.291 -92.2473 497.888
lowerback 7.37004 1.02419 2.58374
upperback 6.80945 1.23117 0.291718
thorax 2.97399 0.608233 -1.20719
lowerneck -8.16227 2.71462 8.73389
upperneck 4.26906 3.08497 -6.42847
head 2.82935 1.44106 -3.21062
rclavicle -7.95139e-016 1.3418e-015
rhumerus -39.562 37.313 -103.058
rradius 113.782
rwrist -11.4959
rhand -26.5684 18.2818
rfingers 7.12502
rthumb -0.00326308 -11.698
lclavicle -7.95139e-016 1.3418e-015
lhumerus -35.7709 -25.7103 96.078
lradius 110.727
lwrist 12.7697
lhand -18.3471 -5.04447
lfingers 7.12502
lthumb 7.93536 24.7866
rfemur -17.0671 11.9468 25.5418
rtibia 43.0558
rfoot -39.5302 -28.8081
rtoes -4.41337
lfemur -10.2922 -15.3411 -22.3222
ltibia 43.0067
lfoot -32.5844 15.9588
ltoes -8.7619
700
root 12.9152 14.8344 -1.6173 -497.537 -92.1404 496.112
lowerback 7.27434 0.913345 2.33789
upperback 6.8632 1.06649 0.296594
thorax 3.07008 0.516239 -1.0554
lowerneck -8.00916 2.71302 8.78857
upperneck 4.16704 3.09019 -6.48671
head 2.7761 1.44426 -3.23867
rclavicle -1.35422e-015 -1.04859e-014
rhumerus -39.3768 37.432 -102.896
rradius 113.776
rwrist -11.2212
rhand -26.4306 18.1034
rfingers 7.12502
rthumb 0.129891 -11.8763
lclavicle -1.35422e-015 -1.04859e-014
lhumerus -36.2124 -25.2424 96.1856
lradius 109.972
lwrist 12.8258
lhand -18.6662 -5.74162
lfingers 7.12502
lthumb 7.62733 24.1008
rfemur -17.304 12.0448 25.3151
rtibia 43.0432
rfoot -39.3121 -28.7058
rtoes -4.1054
lfemur -10.1988 -16.202 -22.6092
ltibia 42.5692
lfoot -32.408 16.7286
ltoes -8.06689
701
root 12.9785 14.8474 -1.58619 -495.558 -91.8972 494.192
lowerback 7.18799 0.898235 2.07299
upperback 6.87266 1.03417 0.214937
thorax 3.12158 0.492032 -0.988772
lowerneck -8.08614 2.65983 8.98518
upperneck 4.29994 3.00696 -6.66131
head 2.8279 1.39946 -3.32787
rclavicle 1.51511e-014 -5.71506e-016
rhumerus -39.2228 37.1142 -102.777
rradius 113.761
rwrist -11.6794
rhand -25.7515 18.544
rfingers 7.12502
rthumb 0.7858 -11.4343
lclavicle 1.51511e-014 -5.71506e-016
lhumerus -36.5777 -24.8366 96.0853
lradius 109.558
lwrist 12.361
lhand -18.3181 -5.03772
lfingers 7.12502
lthumb 7.96337 24.7923
rfemur -17.6967 12.0057 24.9598
rtibia 43.0848
rfoot -38.8536 -28.5713
rtoes -4.2022
lfemur -10.3085 -16.5435 -22.8255
ltibia 42.2173
lfoot -32.1374 17.049
ltoes -7.40061
